<svg width="698" height="299" viewBox="0 0 698 299" fill="none" xmlns="http://www.w3.org/2000/svg">
<path d="M51.1772 88.2067L56.4267 93.437L48.808 62.9621L51.1772 88.2067ZM53.7662 100.289L59.0142 105.512L56.4267 93.437L53.7662 100.289ZM89.7244 151.205L94.9515 156.399V62.9621L89.7244 151.205ZM69.3001 151.205L74.5391 156.399H94.9515L69.3001 151.205ZM72.033 81.7343L77.2704 86.9683H77.7016L72.033 81.7343ZM64.1222 109.494L69.3642 114.712L77.2704 86.9683L64.1222 109.494ZM59.2319 126.466L64.4767 131.674L69.3642 114.712L59.2319 126.466ZM48.3006 126.466L53.5518 131.674H64.4767L48.3006 126.466ZM35.3556 81.7343L40.6143 86.9683H41.1893L35.3556 81.7343ZM35.4286 82.4444L40.6872 87.678L40.6143 86.9683L35.4286 82.4444ZM35.5035 83.1846L40.7621 88.4177L40.6872 87.678L35.5035 83.1846ZM35.5804 83.9547L40.8389 89.1874L40.7621 88.4177L35.5804 83.9547ZM35.6593 84.7547L40.9178 89.987L40.8389 89.1874L35.6593 84.7547ZM35.7402 85.5848L40.9987 90.8165L40.9178 89.987L35.7402 85.5848ZM35.8231 86.4448L41.0815 91.676L40.9987 90.8165L35.8231 86.4448ZM35.908 87.3347L41.1664 92.5655L41.0815 91.676L35.908 87.3347ZM35.9949 88.2547L41.2532 93.4849L41.1664 92.5655L35.9949 88.2547ZM36.0838 89.2046L41.3421 94.4342L41.2532 93.4849L36.0838 89.2046ZM36.1747 90.1844L41.4329 95.4135L41.3421 94.4342L36.1747 90.1844ZM36.2676 91.1943L41.5257 96.4227L41.4329 95.4135L36.2676 91.1943ZM36.3625 92.234L41.6206 97.4619L41.5257 96.4227L36.3625 92.234ZM36.4574 93.2928L41.7154 98.5201L41.6206 97.4619L36.4574 93.2928ZM36.5502 94.3596L41.8083 99.5862L41.7154 98.5201L36.5502 94.3596ZM36.6411 95.4343L41.8991 100.66L41.8083 99.5862L36.6411 95.4343ZM36.73 96.5171L41.9879 101.742L41.8991 100.66L36.73 96.5171ZM36.8169 97.6078L42.0748 102.833L41.9879 101.742L36.8169 97.6078ZM36.9018 98.7065L42.1596 103.931L42.0748 102.833L36.9018 98.7065ZM36.9847 99.8132L42.2425 105.037L42.1596 103.931L36.9847 99.8132ZM37.0656 100.928L42.3234 106.151L42.2425 105.037L37.0656 100.928ZM37.1446 102.051L42.4022 107.273L42.3234 106.151L37.1446 102.051ZM37.2215 103.181L42.4791 108.403L42.4022 107.273L37.2215 103.181ZM37.2964 104.32L42.554 109.541L42.4791 108.403L37.2964 104.32ZM37.3693 105.467L42.6268 110.687L42.554 109.541L37.3693 105.467ZM37.4402 106.591L42.6977 111.811L42.6268 110.687L37.4402 106.591ZM37.5091 107.712L42.7666 112.931L42.6977 111.811L37.5091 107.712ZM37.576 108.829L42.8335 114.047L42.7666 112.931L37.576 108.829ZM37.641 109.941L42.8983 115.159L42.8335 114.047L37.641 109.941ZM37.7039 111.05L42.9612 116.267L42.8983 115.159L37.7039 111.05ZM37.7648 112.155L43.0221 117.371L42.9612 116.267L37.7648 112.155ZM37.8238 113.256L43.081 118.471L43.0221 117.371L37.8238 113.256ZM37.8807 114.352L43.1379 119.567L43.081 118.471L37.8807 114.352ZM37.9356 115.445L43.1928 120.659L43.1379 119.567L37.9356 115.445ZM37.9886 116.534L43.2457 121.748L43.1928 120.659L37.9886 116.534ZM38.0395 117.619L43.2967 122.832L43.2457 121.748L38.0395 117.619ZM38.0885 118.699L43.3456 123.912L43.2967 122.832L38.0885 118.699ZM38.1574 119.739L43.4144 124.951L43.3456 123.912L38.1574 119.739ZM38.2203 120.749L43.4773 125.96L43.4144 124.951L38.2203 120.749ZM38.2772 121.729L43.5342 126.939L43.4773 125.96L38.2772 121.729ZM38.3282 122.679L43.5851 127.889L43.5342 126.939L38.3282 122.679ZM38.3731 123.599L43.6301 128.808L43.5851 127.889L38.3731 123.599ZM38.4121 124.489L43.669 129.698L43.6301 128.808L38.4121 124.489ZM38.445 125.349L43.7019 130.557L43.669 129.698L38.445 125.349ZM38.472 126.179L43.7289 131.387L43.7019 130.557L38.472 126.179ZM38.493 126.979L43.7499 132.186L43.7289 131.387L38.493 126.979ZM38.508 127.749L43.7648 132.956L43.7499 132.186L38.508 127.749ZM38.517 128.489L43.7738 133.696L43.7648 132.956L38.517 128.489ZM38.52 129.199L43.7768 134.405L43.7738 133.696L38.52 129.199ZM38.52 151.205L43.7768 156.399V134.405L38.52 151.205ZM18.3834 151.205L23.6519 156.399H43.7768L18.3834 151.205ZM171.113 68.1061L176.293 73.348L175.595 72.5864L171.113 68.1061ZM171.782 68.9022L176.961 74.1436L176.293 73.348L171.782 68.9022ZM172.42 69.7322L177.599 74.9732L176.961 74.1436L172.42 69.7322ZM173.028 70.5962L178.207 75.8367L177.599 74.9732L173.028 70.5962ZM173.607 71.4942L178.785 76.7341L178.207 75.8367L173.607 71.4942ZM174.155 72.4261L179.333 77.6655L178.785 76.7341L174.155 72.4261ZM174.673 73.392L179.851 78.6308L179.333 77.6655L174.673 73.392ZM175.156 74.3718L180.333 79.6101L179.851 78.6308L175.156 74.3718ZM175.596 75.3936L180.773 80.6313L180.333 79.6101L175.596 75.3936ZM175.995 76.4574L181.172 81.6945L180.773 80.6313L175.995 76.4574ZM176.351 77.5631L181.528 82.7995L181.172 81.6945L176.351 77.5631ZM176.666 78.7108L181.843 83.9465L181.528 82.7995L176.666 78.7108ZM176.939 79.9004L182.115 85.1354L181.843 83.9465L176.939 79.9004ZM177.169 81.132L182.346 86.3663L182.115 85.1354L177.169 81.132ZM177.358 82.4055L182.534 87.6391L182.346 86.3663L177.358 82.4055ZM177.505 83.7209L182.681 88.9538L182.534 87.6391L177.505 83.7209ZM177.61 85.0784L182.786 90.3104L182.681 88.9538L177.61 85.0784ZM177.673 86.4777L182.849 91.709L182.786 90.3104L177.673 86.4777ZM177.694 87.9191L182.87 93.1495L182.849 91.709L177.694 87.9191ZM177.665 89.5731L182.841 94.8026L182.87 93.1495L177.665 89.5731ZM177.578 91.1793L182.754 96.4078L182.841 94.8026L177.578 91.1793ZM177.433 92.7375L182.609 97.9651L182.754 96.4078L177.433 92.7375ZM177.23 94.2477L182.407 99.4744L182.609 97.9651L177.23 94.2477ZM176.97 95.71L182.146 100.936L182.407 99.4744L176.97 95.71ZM176.651 97.1244L181.828 102.349L182.146 100.936L176.651 97.1244ZM176.274 98.4908L181.451 103.715L181.828 102.349L176.274 98.4908ZM175.84 99.8092L181.017 105.033L181.451 103.715L175.84 99.8092ZM175.347 101.08L180.525 106.303L181.017 105.033L175.347 101.08ZM174.797 102.302L179.975 107.524L180.525 106.303L174.797 102.302ZM174.189 103.477L179.367 108.698L179.975 107.524L174.189 103.477ZM173.523 104.604L178.701 109.824L179.367 108.698L173.523 104.604ZM172.831 105.686L178.01 110.906L178.701 109.824L172.831 105.686ZM172.1 106.729L177.28 111.949L178.01 110.906L172.1 106.729ZM171.329 107.732L176.509 112.951L177.28 111.949L171.329 107.732ZM170.518 108.695L175.698 113.913L176.509 112.951L170.518 108.695ZM169.667 109.618L174.848 114.836L175.698 113.913L169.667 109.618ZM168.776 110.501L173.957 115.718L174.848 114.836L168.776 110.501ZM167.845 111.344L173.027 116.561L173.957 115.718L167.845 111.344ZM166.874 112.147L172.057 117.363L173.027 116.561L166.874 112.147ZM165.864 112.91L171.046 118.126L172.057 117.363L165.864 112.91ZM164.813 113.633L169.996 118.849L171.046 118.126L164.813 113.633ZM163.722 114.316L168.906 119.531L169.996 118.849L163.722 114.316ZM162.591 114.96L167.776 120.174L168.906 119.531L162.591 114.96ZM182.872 151.205L188.045 156.399L167.776 120.174L182.872 151.205ZM155.256 151.205L160.445 156.399H188.045L155.256 151.205ZM130.229 119.85L135.433 125.062H144.345L130.229 119.85ZM130.229 151.205L135.433 156.399V125.062L130.229 151.205ZM105.49 151.205L110.708 156.399H135.433L105.49 151.205ZM150.833 80.4478L156.025 85.6825L156.537 86.1956L150.833 80.4478ZM150.267 79.9863L155.459 85.2213L156.025 85.6825L150.267 79.9863ZM149.646 79.5768L154.839 84.812L155.459 85.2213L149.646 79.5768ZM148.998 79.2092L154.191 84.4447L154.839 84.812L148.998 79.2092ZM148.3 78.8736L153.493 84.1092L154.191 84.4447L148.3 78.8736ZM147.552 78.5699L152.745 83.8058L153.493 84.1092L147.552 78.5699ZM146.754 78.2983L151.948 83.5342L152.745 83.8058L146.754 78.2983ZM145.906 78.0585L151.1 83.2947L151.948 83.5342L145.906 78.0585ZM145.008 77.8508L150.203 83.087L151.1 83.2947L145.008 77.8508ZM144.06 77.675L149.255 82.9113L150.203 83.087L144.06 77.675ZM143.062 77.5312L148.258 82.7676L149.255 82.9113L143.062 77.5312ZM142.014 77.4193L147.211 82.6558L148.258 82.7676L142.014 77.4193ZM140.917 77.3394L146.114 82.5759L147.211 82.6558L140.917 77.3394ZM139.769 77.2914L144.967 82.528L146.114 82.5759L139.769 77.2914ZM138.571 77.2755L143.77 82.512L144.967 82.528L138.571 77.2755ZM130.229 77.2755L135.433 82.512H143.77L130.229 77.2755ZM130.229 100.289L135.433 105.512V82.512L130.229 100.289ZM43.5541 57.7142L51.1772 88.2067L48.808 62.9621L43.5541 57.7142ZM51.1772 88.2067L53.7662 100.289L56.4267 93.437L51.1772 88.2067ZM89.7244 57.7142V151.205L94.9515 62.9621L89.7244 57.7142ZM89.7244 151.205H69.3001L94.9515 156.399L89.7244 151.205ZM72.4645 81.7343H72.033L77.7016 86.9683L72.4645 81.7343ZM72.033 81.7343L64.1222 109.494L77.2704 86.9683L72.033 81.7343ZM64.1222 109.494L59.2319 126.466L69.3642 114.712L64.1222 109.494ZM59.2319 126.466H48.3006L64.4767 131.674L59.2319 126.466ZM35.931 81.7343H35.3556L41.1893 86.9683L35.931 81.7343ZM35.3556 81.7343L35.4286 82.4444L40.6143 86.9683L35.3556 81.7343ZM35.4286 82.4444L35.5035 83.1846L40.6872 87.678L35.4286 82.4444ZM35.5035 83.1846L35.5804 83.9547L40.7621 88.4177L35.5035 83.1846ZM35.5804 83.9547L35.6593 84.7547L40.8389 89.1874L35.5804 83.9547ZM35.6593 84.7547L35.7402 85.5848L40.9178 89.987L35.6593 84.7547ZM35.7402 85.5848L35.8231 86.4448L40.9987 90.8165L35.7402 85.5848ZM35.8231 86.4448L35.908 87.3347L41.0815 91.676L35.8231 86.4448ZM35.908 87.3347L35.9949 88.2547L41.1664 92.5655L35.908 87.3347ZM35.9949 88.2547L36.0838 89.2046L41.2532 93.4849L35.9949 88.2547ZM36.0838 89.2046L36.1747 90.1844L41.3421 94.4342L36.0838 89.2046ZM36.1747 90.1844L36.2676 91.1943L41.4329 95.4135L36.1747 90.1844ZM36.2676 91.1943L36.3625 92.234L41.5257 96.4227L36.2676 91.1943ZM36.3625 92.234L36.4574 93.2928L41.6206 97.4619L36.3625 92.234ZM36.4574 93.2928L36.5502 94.3596L41.7154 98.5201L36.4574 93.2928ZM36.5502 94.3596L36.6411 95.4343L41.8083 99.5862L36.5502 94.3596ZM36.6411 95.4343L36.73 96.5171L41.8991 100.66L36.6411 95.4343ZM36.73 96.5171L36.8169 97.6078L41.9879 101.742L36.73 96.5171ZM36.8169 97.6078L36.9018 98.7065L42.0748 102.833L36.8169 97.6078ZM36.9018 98.7065L36.9847 99.8132L42.1596 103.931L36.9018 98.7065ZM36.9847 99.8132L37.0656 100.928L42.2425 105.037L36.9847 99.8132ZM37.0656 100.928L37.1446 102.051L42.3234 106.151L37.0656 100.928ZM37.1446 102.051L37.2215 103.181L42.4022 107.273L37.1446 102.051ZM37.2215 103.181L37.2964 104.32L42.4791 108.403L37.2215 103.181ZM37.2964 104.32L37.3693 105.467L42.554 109.541L37.2964 104.32ZM37.3693 105.467L37.4402 106.591L42.6268 110.687L37.3693 105.467ZM37.4402 106.591L37.5091 107.712L42.6977 111.811L37.4402 106.591ZM37.5091 107.712L37.576 108.829L42.7666 112.931L37.5091 107.712ZM37.576 108.829L37.641 109.941L42.8335 114.047L37.576 108.829ZM37.641 109.941L37.7039 111.05L42.8983 115.159L37.641 109.941ZM37.7039 111.05L37.7648 112.155L42.9612 116.267L37.7039 111.05ZM37.7648 112.155L37.8238 113.256L43.0221 117.371L37.7648 112.155ZM37.8238 113.256L37.8807 114.352L43.081 118.471L37.8238 113.256ZM37.8807 114.352L37.9356 115.445L43.1379 119.567L37.8807 114.352ZM37.9356 115.445L37.9886 116.534L43.1928 120.659L37.9356 115.445ZM37.9886 116.534L38.0395 117.619L43.2457 121.748L37.9886 116.534ZM38.0395 117.619L38.0885 118.699L43.2967 122.832L38.0395 117.619ZM38.0885 118.699L38.1574 119.739L43.3456 123.912L38.0885 118.699ZM38.1574 119.739L38.2203 120.749L43.4144 124.951L38.1574 119.739ZM38.2203 120.749L38.2772 121.729L43.4773 125.96L38.2203 120.749ZM38.2772 121.729L38.3282 122.679L43.5342 126.939L38.2772 121.729ZM38.3282 122.679L38.3731 123.599L43.5851 127.889L38.3282 122.679ZM38.3731 123.599L38.4121 124.489L43.6301 128.808L38.3731 123.599ZM38.4121 124.489L38.445 125.349L43.669 129.698L38.4121 124.489ZM38.445 125.349L38.472 126.179L43.7019 130.557L38.445 125.349ZM38.472 126.179L38.493 126.979L43.7289 131.387L38.472 126.179ZM38.493 126.979L38.508 127.749L43.7499 132.186L38.493 126.979ZM38.508 127.749L38.517 128.489L43.7648 132.956L38.508 127.749ZM38.517 128.489L38.52 129.199L43.7738 133.696L38.517 128.489ZM38.52 129.199V151.205L43.7768 134.405L38.52 129.199ZM38.52 151.205H18.3834L43.7768 156.399L38.52 151.205ZM170.415 67.344L171.113 68.1061L175.595 72.5864L170.415 67.344ZM171.113 68.1061L171.782 68.9022L176.293 73.348L171.113 68.1061ZM171.782 68.9022L172.42 69.7322L176.961 74.1436L171.782 68.9022ZM172.42 69.7322L173.028 70.5962L177.599 74.9732L172.42 69.7322ZM173.028 70.5962L173.607 71.4942L178.207 75.8367L173.028 70.5962ZM173.607 71.4942L174.155 72.4261L178.785 76.7341L173.607 71.4942ZM174.155 72.4261L174.673 73.392L179.333 77.6655L174.155 72.4261ZM174.673 73.392L175.156 74.3718L179.851 78.6308L174.673 73.392ZM175.156 74.3718L175.596 75.3936L180.333 79.6101L175.156 74.3718ZM175.596 75.3936L175.995 76.4574L180.773 80.6313L175.596 75.3936ZM175.995 76.4574L176.351 77.5631L181.172 81.6945L175.995 76.4574ZM176.351 77.5631L176.666 78.7108L181.528 82.7995L176.351 77.5631ZM176.666 78.7108L176.939 79.9004L181.843 83.9465L176.666 78.7108ZM176.939 79.9004L177.169 81.132L182.115 85.1354L176.939 79.9004ZM177.169 81.132L177.358 82.4055L182.346 86.3663L177.169 81.132ZM177.358 82.4055L177.505 83.7209L182.534 87.6391L177.358 82.4055ZM177.505 83.7209L177.61 85.0784L182.681 88.9538L177.505 83.7209ZM177.61 85.0784L177.673 86.4777L182.786 90.3104L177.61 85.0784ZM177.673 86.4777L177.694 87.9191L182.849 91.709L177.673 86.4777ZM177.694 87.9191L177.665 89.5731L182.87 93.1495L177.694 87.9191ZM177.665 89.5731L177.578 91.1793L182.841 94.8026L177.665 89.5731ZM177.578 91.1793L177.433 92.7375L182.754 96.4078L177.578 91.1793ZM177.433 92.7375L177.23 94.2477L182.609 97.9651L177.433 92.7375ZM177.23 94.2477L176.97 95.71L182.407 99.4744L177.23 94.2477ZM176.97 95.71L176.651 97.1244L182.146 100.936L176.97 95.71ZM176.651 97.1244L176.274 98.4908L181.828 102.349L176.651 97.1244ZM176.274 98.4908L175.84 99.8092L181.451 103.715L176.274 98.4908ZM175.84 99.8092L175.347 101.08L181.017 105.033L175.84 99.8092ZM175.347 101.08L174.797 102.302L180.525 106.303L175.347 101.08ZM174.797 102.302L174.189 103.477L179.975 107.524L174.797 102.302ZM174.189 103.477L173.523 104.604L179.367 108.698L174.189 103.477ZM173.523 104.604L172.831 105.686L178.701 109.824L173.523 104.604ZM172.831 105.686L172.1 106.729L178.01 110.906L172.831 105.686ZM172.1 106.729L171.329 107.732L177.28 111.949L172.1 106.729ZM171.329 107.732L170.518 108.695L176.509 112.951L171.329 107.732ZM170.518 108.695L169.667 109.618L175.698 113.913L170.518 108.695ZM169.667 109.618L168.776 110.501L174.848 114.836L169.667 109.618ZM168.776 110.501L167.845 111.344L173.957 115.718L168.776 110.501ZM167.845 111.344L166.874 112.147L173.027 116.561L167.845 111.344ZM166.874 112.147L165.864 112.91L172.057 117.363L166.874 112.147ZM165.864 112.91L164.813 113.633L171.046 118.126L165.864 112.91ZM164.813 113.633L163.722 114.316L169.996 118.849L164.813 113.633ZM163.722 114.316L162.591 114.96L168.906 119.531L163.722 114.316ZM162.591 114.96L182.872 151.205L167.776 120.174L162.591 114.96ZM182.872 151.205H155.256L188.045 156.399L182.872 151.205ZM139.147 119.85H130.229L144.345 125.062L139.147 119.85ZM130.229 119.85V151.205L135.433 125.062L130.229 119.85ZM130.229 151.205H105.49L135.433 156.399L130.229 151.205ZM151.345 80.9612L150.833 80.4478L156.537 86.1956L151.345 80.9612ZM150.833 80.4478L150.267 79.9863L156.025 85.6825L150.833 80.4478ZM150.267 79.9863L149.646 79.5768L155.459 85.2213L150.267 79.9863ZM149.646 79.5768L148.998 79.2092L154.839 84.812L149.646 79.5768ZM148.998 79.2092L148.3 78.8736L154.191 84.4447L148.998 79.2092ZM148.3 78.8736L147.552 78.5699L153.493 84.1092L148.3 78.8736ZM147.552 78.5699L146.754 78.2983L152.745 83.8058L147.552 78.5699ZM146.754 78.2983L145.906 78.0585L151.948 83.5342L146.754 78.2983ZM145.906 78.0585L145.008 77.8508L151.1 83.2947L145.906 78.0585ZM145.008 77.8508L144.06 77.675L150.203 83.087L145.008 77.8508ZM144.06 77.675L143.062 77.5312L149.255 82.9113L144.06 77.675ZM143.062 77.5312L142.014 77.4193L148.258 82.7676L143.062 77.5312ZM142.014 77.4193L140.917 77.3394L147.211 82.6558L142.014 77.4193ZM140.917 77.3394L139.769 77.2914L146.114 82.5759L140.917 77.3394ZM139.769 77.2914L138.571 77.2755L144.967 82.528L139.769 77.2914ZM138.571 77.2755H130.229L143.77 82.512L138.571 77.2755ZM130.229 77.2755V100.289L135.433 82.512L130.229 77.2755ZM45.9216 82.9704L51.1772 88.2067L43.5541 57.7142L45.9216 82.9704ZM48.5121 95.0594L53.7662 100.289L51.1772 88.2067L48.5121 95.0594ZM84.4912 146.006L89.7244 151.205V57.7142L84.4912 146.006ZM64.0551 146.006L69.3001 151.205H89.7244L64.0551 146.006ZM66.7895 76.4942L72.033 81.7343H72.4645L66.7895 76.4942ZM58.8741 104.27L64.1222 109.494L72.033 81.7343L58.8741 104.27ZM53.9809 121.252L59.2319 126.466L64.1222 109.494L53.9809 121.252ZM43.0433 121.252L48.3006 126.466H59.2319L43.0433 121.252ZM30.0908 76.4942L35.3556 81.7343H35.931L30.0908 76.4942ZM30.1638 77.2048L35.4286 82.4444L35.3556 81.7343L30.1638 77.2048ZM30.2387 77.9453L35.5035 83.1846L35.4286 82.4444L30.2387 77.9453ZM30.3157 78.7159L35.5804 83.9547L35.5035 83.1846L30.3157 78.7159ZM30.3946 79.5164L35.6593 84.7547L35.5804 83.9547L30.3946 79.5164ZM30.4756 80.3469L35.7402 85.5848L35.6593 84.7547L30.4756 80.3469ZM30.5585 81.2074L35.8231 86.4448L35.7402 85.5848L30.5585 81.2074ZM30.6435 82.0979L35.908 87.3347L35.8231 86.4448L30.6435 82.0979ZM30.7304 83.0184L35.9949 88.2547L35.908 87.3347L30.7304 83.0184ZM30.8194 83.9688L36.0838 89.2046L35.9949 88.2547L30.8194 83.9688ZM30.9103 84.9493L36.1747 90.1844L36.0838 89.2046L30.9103 84.9493ZM31.0033 85.9597L36.2676 91.1943L36.1747 90.1844L31.0033 85.9597ZM31.0982 87.0001L36.3625 92.234L36.2676 91.1943L31.0982 87.0001ZM31.1932 88.0595L36.4574 93.2928L36.3625 92.234L31.1932 88.0595ZM31.2861 89.1268L36.5502 94.3596L36.4574 93.2928L31.2861 89.1268ZM31.3771 90.2022L36.6411 95.4343L36.5502 94.3596L31.3771 90.2022ZM31.466 91.2856L36.73 96.5171L36.6411 95.4343L31.466 91.2856ZM31.553 92.3769L36.8169 97.6078L36.73 96.5171L31.553 92.3769ZM31.6379 93.4763L36.9018 98.7065L36.8169 97.6078L31.6379 93.4763ZM31.7209 94.5837L36.9847 99.8132L36.9018 98.7065L31.7209 94.5837ZM31.8018 95.699L37.0656 100.928L36.9847 99.8132L31.8018 95.699ZM31.8808 96.8224L37.1446 102.051L37.0656 100.928L31.8808 96.8224ZM31.9577 97.9537L37.2215 103.181L37.1446 102.051L31.9577 97.9537ZM32.0327 99.093L37.2964 104.32L37.2215 103.181L32.0327 99.093ZM32.1056 100.24L37.3693 105.467L37.2964 104.32L32.1056 100.24ZM32.1766 101.366L37.4402 106.591L37.3693 105.467L32.1766 101.366ZM32.2456 102.487L37.5091 107.712L37.4402 106.591L32.2456 102.487ZM32.3125 103.604L37.576 108.829L37.5091 107.712L32.3125 103.604ZM32.3775 104.718L37.641 109.941L37.576 108.829L32.3775 104.718ZM32.4405 105.827L37.7039 111.05L37.641 109.941L32.4405 105.827ZM32.5014 106.932L37.7648 112.155L37.7039 111.05L32.5014 106.932ZM32.5604 108.034L37.8238 113.256L37.7648 112.155L32.5604 108.034ZM32.6174 109.131L37.8807 114.352L37.8238 113.256L32.6174 109.131ZM32.6723 110.225L37.9356 115.445L37.8807 114.352L32.6723 110.225ZM32.7253 111.314L37.9886 116.534L37.9356 115.445L32.7253 111.314ZM32.7763 112.399L38.0395 117.619L37.9886 116.534L32.7763 112.399ZM32.8252 113.481L38.0885 118.699L38.0395 117.619L32.8252 113.481ZM32.8942 114.521L38.1574 119.739L38.0885 118.699L32.8942 114.521ZM32.9572 115.531L38.2203 120.749L38.1574 119.739L32.9572 115.531ZM33.0141 116.512L38.2772 121.729L38.2203 120.749L33.0141 116.512ZM33.0651 117.462L38.3282 122.679L38.2772 121.729L33.0651 117.462ZM33.1101 118.383L38.3731 123.599L38.3282 122.679L33.1101 118.383ZM33.149 119.273L38.4121 124.489L38.3731 123.599L33.149 119.273ZM33.182 120.134L38.445 125.349L38.4121 124.489L33.182 120.134ZM33.209 120.964L38.472 126.179L38.445 125.349L33.209 120.964ZM33.23 121.765L38.493 126.979L38.472 126.179L33.23 121.765ZM33.245 122.535L38.508 127.749L38.493 126.979L33.245 122.535ZM33.254 123.276L38.517 128.489L38.508 127.749L33.254 123.276ZM33.257 123.987L38.52 129.199L38.517 128.489L33.257 123.987ZM33.257 146.006L38.52 151.205V129.199L33.257 146.006ZM13.1087 146.006L18.3834 151.205H38.52L13.1087 146.006ZM165.928 62.8581L171.113 68.1061L170.415 67.344L165.928 62.8581ZM166.596 63.6547L171.782 68.9022L171.113 68.1061L166.596 63.6547ZM167.235 64.4852L172.42 69.7322L171.782 68.9022L167.235 64.4852ZM167.843 65.3497L173.028 70.5962L172.42 69.7322L167.843 65.3497ZM168.422 66.2481L173.607 71.4942L173.028 70.5962L168.422 66.2481ZM168.971 67.1806L174.155 72.4261L173.607 71.4942L168.971 67.1806ZM169.489 68.147L174.673 73.392L174.155 72.4261L169.489 68.147ZM169.972 69.1275L175.156 74.3718L174.673 73.392L169.972 69.1275ZM170.413 70.1499L175.596 75.3936L175.156 74.3718L170.413 70.1499ZM170.812 71.2143L175.995 76.4574L175.596 75.3936L170.812 71.2143ZM171.168 72.3206L176.351 77.5631L175.995 76.4574L171.168 72.3206ZM171.483 73.4689L176.666 78.7108L176.351 77.5631L171.483 73.4689ZM171.756 74.6593L176.939 79.9004L176.666 78.7108L171.756 74.6593ZM171.987 75.8915L177.169 81.132L176.939 79.9004L171.987 75.8915ZM172.176 77.1658L177.358 82.4055L177.169 81.132L172.176 77.1658ZM172.323 78.482L177.505 83.7209L177.358 82.4055L172.323 78.482ZM172.428 79.8402L177.61 85.0784L177.505 83.7209L172.428 79.8402ZM172.491 81.2404L177.673 86.4777L177.61 85.0784L172.491 81.2404ZM172.512 82.6826L177.694 87.9191L177.673 86.4777L172.512 82.6826ZM172.483 84.3376L177.665 89.5731L177.694 87.9191L172.483 84.3376ZM172.396 85.9447L177.578 91.1793L177.665 89.5731L172.396 85.9447ZM172.251 87.5038L177.433 92.7375L177.578 91.1793L172.251 87.5038ZM172.048 89.0149L177.23 94.2477L177.433 92.7375L172.048 89.0149ZM171.787 90.4781L176.97 95.71L177.23 94.2477L171.787 90.4781ZM171.468 91.8932L176.651 97.1244L176.97 95.71L171.468 91.8932ZM171.092 93.2604L176.274 98.4908L176.651 97.1244L171.092 93.2604ZM170.657 94.5797L175.84 99.8092L176.274 98.4908L170.657 94.5797ZM170.164 95.8509L175.347 101.08L175.84 99.8092L170.164 95.8509ZM169.613 97.0742L174.797 102.302L175.347 101.08L169.613 97.0742ZM169.005 98.2495L174.189 103.477L174.797 102.302L169.005 98.2495ZM168.338 99.3769L173.523 104.604L174.189 103.477L168.338 99.3769ZM167.647 100.46L172.831 105.686L173.523 104.604L167.647 100.46ZM166.915 101.504L172.1 106.729L172.831 105.686L166.915 101.504ZM166.143 102.507L171.329 107.732L172.1 106.729L166.143 102.507ZM165.332 103.47L170.518 108.695L171.329 107.732L165.332 103.47ZM164.48 104.394L169.667 109.618L170.518 108.695L164.48 104.394ZM163.589 105.277L168.776 110.501L169.667 109.618L163.589 105.277ZM162.657 106.121L167.845 111.344L168.776 110.501L162.657 106.121ZM161.686 106.924L166.874 112.147L167.845 111.344L161.686 106.924ZM160.675 107.688L165.864 112.91L166.874 112.147L160.675 107.688ZM159.623 108.412L164.813 113.633L165.864 112.91L159.623 108.412ZM158.532 109.095L163.722 114.316L164.813 113.633L158.532 109.095ZM157.4 109.739L162.591 114.96L163.722 114.316L157.4 109.739ZM177.693 146.006L182.872 151.205L162.591 114.96L177.693 146.006ZM150.061 146.006L155.256 151.205H182.872L150.061 146.006ZM125.019 114.632L130.229 119.85H139.147L125.019 114.632ZM125.019 146.006L130.229 151.205V119.85L125.019 146.006ZM100.266 146.006L105.49 151.205H130.229L100.266 146.006ZM145.635 75.2069L150.833 80.4478L151.345 80.9612L145.635 75.2069ZM145.069 74.7452L150.267 79.9863L150.833 80.4478L145.069 74.7452ZM144.448 74.3354L149.646 79.5768L150.267 79.9863L144.448 74.3354ZM143.799 73.9677L148.998 79.2092L149.646 79.5768L143.799 73.9677ZM143.101 73.6319L148.3 78.8736L148.998 79.2092L143.101 73.6319ZM142.352 73.328L147.552 78.5699L148.3 78.8736L142.352 73.328ZM141.554 73.0562L146.754 78.2983L147.552 78.5699L141.554 73.0562ZM140.705 72.8163L145.906 78.0585L146.754 78.2983L140.705 72.8163ZM139.807 72.6084L145.008 77.8508L145.906 78.0585L139.807 72.6084ZM138.858 72.4326L144.06 77.675L145.008 77.8508L138.858 72.4326ZM137.86 72.2886L143.062 77.5312L144.06 77.675L137.86 72.2886ZM136.811 72.1767L142.014 77.4193L143.062 77.5312L136.811 72.1767ZM135.713 72.0967L140.917 77.3394L142.014 77.4193L135.713 72.0967ZM134.565 72.0488L139.769 77.2914L140.917 77.3394L134.565 72.0488ZM133.366 72.0328L138.571 77.2755L139.769 77.2914L133.366 72.0328ZM125.019 72.0328L130.229 77.2755H138.571L125.019 72.0328ZM125.019 95.0594L130.229 100.289V77.2755L125.019 95.0594ZM38.294 52.4602L45.9216 82.9704L43.5541 57.7142L38.294 52.4602ZM45.9216 82.9704L48.5121 95.0594L51.1772 88.2067L45.9216 82.9704ZM84.4912 52.4602V146.006L89.7244 57.7142L84.4912 52.4602ZM84.4912 146.006H64.0551L89.7244 151.205L84.4912 146.006ZM67.2212 76.4942H66.7895L72.4645 81.7343L67.2212 76.4942ZM66.7895 76.4942L58.8741 104.27L72.033 81.7343L66.7895 76.4942ZM58.8741 104.27L53.9809 121.252L64.1222 109.494L58.8741 104.27ZM53.9809 121.252H43.0433L59.2319 126.466L53.9809 121.252ZM30.6665 76.4942H30.0908L35.931 81.7343L30.6665 76.4942ZM30.0908 76.4942L30.1638 77.2048L35.3556 81.7343L30.0908 76.4942ZM30.1638 77.2048L30.2387 77.9453L35.4286 82.4444L30.1638 77.2048ZM30.2387 77.9453L30.3157 78.7159L35.5035 83.1846L30.2387 77.9453ZM30.3157 78.7159L30.3946 79.5164L35.5804 83.9547L30.3157 78.7159ZM30.3946 79.5164L30.4756 80.3469L35.6593 84.7547L30.3946 79.5164ZM30.4756 80.3469L30.5585 81.2074L35.7402 85.5848L30.4756 80.3469ZM30.5585 81.2074L30.6435 82.0979L35.8231 86.4448L30.5585 81.2074ZM30.6435 82.0979L30.7304 83.0184L35.908 87.3347L30.6435 82.0979ZM30.7304 83.0184L30.8194 83.9688L35.9949 88.2547L30.7304 83.0184ZM30.8194 83.9688L30.9103 84.9493L36.0838 89.2046L30.8194 83.9688ZM30.9103 84.9493L31.0033 85.9597L36.1747 90.1844L30.9103 84.9493ZM31.0033 85.9597L31.0982 87.0001L36.2676 91.1943L31.0033 85.9597ZM31.0982 87.0001L31.1932 88.0595L36.3625 92.234L31.0982 87.0001ZM31.1932 88.0595L31.2861 89.1268L36.4574 93.2928L31.1932 88.0595ZM31.2861 89.1268L31.3771 90.2022L36.5502 94.3596L31.2861 89.1268ZM31.3771 90.2022L31.466 91.2856L36.6411 95.4343L31.3771 90.2022ZM31.466 91.2856L31.553 92.3769L36.73 96.5171L31.466 91.2856ZM31.553 92.3769L31.6379 93.4763L36.8169 97.6078L31.553 92.3769ZM31.6379 93.4763L31.7209 94.5837L36.9018 98.7065L31.6379 93.4763ZM31.7209 94.5837L31.8018 95.699L36.9847 99.8132L31.7209 94.5837ZM31.8018 95.699L31.8808 96.8224L37.0656 100.928L31.8018 95.699ZM31.8808 96.8224L31.9577 97.9537L37.1446 102.051L31.8808 96.8224ZM31.9577 97.9537L32.0327 99.093L37.2215 103.181L31.9577 97.9537ZM32.0327 99.093L32.1056 100.24L37.2964 104.32L32.0327 99.093ZM32.1056 100.24L32.1766 101.366L37.3693 105.467L32.1056 100.24ZM32.1766 101.366L32.2456 102.487L37.4402 106.591L32.1766 101.366ZM32.2456 102.487L32.3125 103.604L37.5091 107.712L32.2456 102.487ZM32.3125 103.604L32.3775 104.718L37.576 108.829L32.3125 103.604ZM32.3775 104.718L32.4405 105.827L37.641 109.941L32.3775 104.718ZM32.4405 105.827L32.5014 106.932L37.7039 111.05L32.4405 105.827ZM32.5014 106.932L32.5604 108.034L37.7648 112.155L32.5014 106.932ZM32.5604 108.034L32.6174 109.131L37.8238 113.256L32.5604 108.034ZM32.6174 109.131L32.6723 110.225L37.8807 114.352L32.6174 109.131ZM32.6723 110.225L32.7253 111.314L37.9356 115.445L32.6723 110.225ZM32.7253 111.314L32.7763 112.399L37.9886 116.534L32.7253 111.314ZM32.7763 112.399L32.8252 113.481L38.0395 117.619L32.7763 112.399ZM32.8252 113.481L32.8942 114.521L38.0885 118.699L32.8252 113.481ZM32.8942 114.521L32.9572 115.531L38.1574 119.739L32.8942 114.521ZM32.9572 115.531L33.0141 116.512L38.2203 120.749L32.9572 115.531ZM33.0141 116.512L33.0651 117.462L38.2772 121.729L33.0141 116.512ZM33.0651 117.462L33.1101 118.383L38.3282 122.679L33.0651 117.462ZM33.1101 118.383L33.149 119.273L38.3731 123.599L33.1101 118.383ZM33.149 119.273L33.182 120.134L38.4121 124.489L33.149 119.273ZM33.182 120.134L33.209 120.964L38.445 125.349L33.182 120.134ZM33.209 120.964L33.23 121.765L38.472 126.179L33.209 120.964ZM33.23 121.765L33.245 122.535L38.493 126.979L33.23 121.765ZM33.245 122.535L33.254 123.276L38.508 127.749L33.245 122.535ZM33.254 123.276L33.257 123.987L38.517 128.489L33.254 123.276ZM33.257 123.987V146.006L38.52 129.199L33.257 123.987ZM33.257 146.006H13.1087L38.52 151.205L33.257 146.006ZM165.229 62.0956L165.928 62.8581L170.415 67.344L165.229 62.0956ZM165.928 62.8581L166.596 63.6547L171.113 68.1061L165.928 62.8581ZM166.596 63.6547L167.235 64.4852L171.782 68.9022L166.596 63.6547ZM167.235 64.4852L167.843 65.3497L172.42 69.7322L167.235 64.4852ZM167.843 65.3497L168.422 66.2481L173.028 70.5962L167.843 65.3497ZM168.422 66.2481L168.971 67.1806L173.607 71.4942L168.422 66.2481ZM168.971 67.1806L169.489 68.147L174.155 72.4261L168.971 67.1806ZM169.489 68.147L169.972 69.1275L174.673 73.392L169.489 68.147ZM169.972 69.1275L170.413 70.1499L175.156 74.3718L169.972 69.1275ZM170.413 70.1499L170.812 71.2143L175.596 75.3936L170.413 70.1499ZM170.812 71.2143L171.168 72.3206L175.995 76.4574L170.812 71.2143ZM171.168 72.3206L171.483 73.4689L176.351 77.5631L171.168 72.3206ZM171.483 73.4689L171.756 74.6593L176.666 78.7108L171.483 73.4689ZM171.756 74.6593L171.987 75.8915L176.939 79.9004L171.756 74.6593ZM171.987 75.8915L172.176 77.1658L177.169 81.132L171.987 75.8915ZM172.176 77.1658L172.323 78.482L177.358 82.4055L172.176 77.1658ZM172.323 78.482L172.428 79.8402L177.505 83.7209L172.323 78.482ZM172.428 79.8402L172.491 81.2404L177.61 85.0784L172.428 79.8402ZM172.491 81.2404L172.512 82.6826L177.673 86.4777L172.491 81.2404ZM172.512 82.6826L172.483 84.3376L177.694 87.9191L172.512 82.6826ZM172.483 84.3376L172.396 85.9447L177.665 89.5731L172.483 84.3376ZM172.396 85.9447L172.251 87.5038L177.578 91.1793L172.396 85.9447ZM172.251 87.5038L172.048 89.0149L177.433 92.7375L172.251 87.5038ZM172.048 89.0149L171.787 90.4781L177.23 94.2477L172.048 89.0149ZM171.787 90.4781L171.468 91.8932L176.97 95.71L171.787 90.4781ZM171.468 91.8932L171.092 93.2604L176.651 97.1244L171.468 91.8932ZM171.092 93.2604L170.657 94.5797L176.274 98.4908L171.092 93.2604ZM170.657 94.5797L170.164 95.8509L175.84 99.8092L170.657 94.5797ZM170.164 95.8509L169.613 97.0742L175.347 101.08L170.164 95.8509ZM169.613 97.0742L169.005 98.2495L174.797 102.302L169.613 97.0742ZM169.005 98.2495L168.338 99.3769L174.189 103.477L169.005 98.2495ZM168.338 99.3769L167.647 100.46L173.523 104.604L168.338 99.3769ZM167.647 100.46L166.915 101.504L172.831 105.686L167.647 100.46ZM166.915 101.504L166.143 102.507L172.1 106.729L166.915 101.504ZM166.143 102.507L165.332 103.47L171.329 107.732L166.143 102.507ZM165.332 103.47L164.48 104.394L170.518 108.695L165.332 103.47ZM164.48 104.394L163.589 105.277L169.667 109.618L164.48 104.394ZM163.589 105.277L162.657 106.121L168.776 110.501L163.589 105.277ZM162.657 106.121L161.686 106.924L167.845 111.344L162.657 106.121ZM161.686 106.924L160.675 107.688L166.874 112.147L161.686 106.924ZM160.675 107.688L159.623 108.412L165.864 112.91L160.675 107.688ZM159.623 108.412L158.532 109.095L164.813 113.633L159.623 108.412ZM158.532 109.095L157.4 109.739L163.722 114.316L158.532 109.095ZM157.4 109.739L177.693 146.006L162.591 114.96L157.4 109.739ZM177.693 146.006H150.061L182.872 151.205L177.693 146.006ZM133.942 114.632H125.019L139.147 119.85L133.942 114.632ZM125.019 114.632V146.006L130.229 119.85L125.019 114.632ZM125.019 146.006H100.266L130.229 151.205L125.019 146.006ZM146.148 75.7206L145.635 75.2069L151.345 80.9612L146.148 75.7206ZM145.635 75.2069L145.069 74.7452L150.833 80.4478L145.635 75.2069ZM145.069 74.7452L144.448 74.3354L150.267 79.9863L145.069 74.7452ZM144.448 74.3354L143.799 73.9677L149.646 79.5768L144.448 74.3354ZM143.799 73.9677L143.101 73.6319L148.998 79.2092L143.799 73.9677ZM143.101 73.6319L142.352 73.328L148.3 78.8736L143.101 73.6319ZM142.352 73.328L141.554 73.0562L147.552 78.5699L142.352 73.328ZM141.554 73.0562L140.705 72.8163L146.754 78.2983L141.554 73.0562ZM140.705 72.8163L139.807 72.6084L145.906 78.0585L140.705 72.8163ZM139.807 72.6084L138.858 72.4326L145.008 77.8508L139.807 72.6084ZM138.858 72.4326L137.86 72.2886L144.06 77.675L138.858 72.4326ZM137.86 72.2886L136.811 72.1767L143.062 77.5312L137.86 72.2886ZM136.811 72.1767L135.713 72.0967L142.014 77.4193L136.811 72.1767ZM135.713 72.0967L134.565 72.0488L140.917 77.3394L135.713 72.0967ZM134.565 72.0488L133.366 72.0328L139.769 77.2914L134.565 72.0488ZM133.366 72.0328H125.019L138.571 77.2755L133.366 72.0328ZM125.019 72.0328V95.0594L130.229 77.2755L125.019 72.0328ZM40.6599 77.728L45.9216 82.9704L38.294 52.4602L40.6599 77.728ZM43.2519 89.824L48.5121 95.0594L45.9216 82.9704L43.2519 89.824ZM79.2519 140.8L84.4912 146.006V52.4602L79.2519 140.8ZM58.8039 140.8L64.0551 146.006H84.4912L58.8039 140.8ZM61.5399 71.248L66.7895 76.4942H67.2212L61.5399 71.248ZM53.6199 99.04L58.8741 104.27L66.7895 76.4942L53.6199 99.04ZM48.7239 116.032L53.9809 121.252L58.8741 104.27L48.7239 116.032ZM37.7799 116.032L43.0433 121.252H53.9809L37.7799 116.032ZM24.8199 71.248L30.0908 76.4942H30.6665L24.8199 71.248ZM24.8929 71.959L30.1638 77.2048L30.0908 76.4942L24.8929 71.959ZM24.9679 72.7L30.2387 77.9453L30.1638 77.2048L24.9679 72.7ZM25.0449 73.471L30.3157 78.7159L30.2387 77.9453L25.0449 73.471ZM25.1239 74.272L30.3946 79.5164L30.3157 78.7159L25.1239 74.272ZM25.2049 75.103L30.4756 80.3469L30.3946 79.5164L25.2049 75.103ZM25.2879 75.964L30.5585 81.2074L30.4756 80.3469L25.2879 75.964ZM25.3729 76.855L30.6435 82.0979L30.5585 81.2074L25.3729 76.855ZM25.4599 77.776L30.7304 83.0184L30.6435 82.0979L25.4599 77.776ZM25.5489 78.727L30.8194 83.9688L30.7304 83.0184L25.5489 78.727ZM25.6399 79.708L30.9103 84.9493L30.8194 83.9688L25.6399 79.708ZM25.7329 80.719L31.0033 85.9597L30.9103 84.9493L25.7329 80.719ZM25.8279 81.76L31.0982 87.0001L31.0033 85.9597L25.8279 81.76ZM25.9229 82.82L31.1932 88.0595L31.0982 87.0001L25.9229 82.82ZM26.0159 83.888L31.2861 89.1268L31.1932 88.0595L26.0159 83.888ZM26.1069 84.964L31.3771 90.2022L31.2861 89.1268L26.1069 84.964ZM26.1959 86.048L31.466 91.2856L31.3771 90.2022L26.1959 86.048ZM26.2829 87.14L31.553 92.3769L31.466 91.2856L26.2829 87.14ZM26.3679 88.24L31.6379 93.4763L31.553 92.3769L26.3679 88.24ZM26.4509 89.348L31.7209 94.5837L31.6379 93.4763L26.4509 89.348ZM26.5319 90.464L31.8018 95.699L31.7209 94.5837L26.5319 90.464ZM26.6109 91.588L31.8808 96.8224L31.8018 95.699L26.6109 91.588ZM26.6879 92.72L31.9577 97.9537L31.8808 96.8224L26.6879 92.72ZM26.7629 93.86L32.0327 99.093L31.9577 97.9537L26.7629 93.86ZM26.8359 95.008L32.1056 100.24L32.0327 99.093L26.8359 95.008ZM26.9069 96.134L32.1766 101.366L32.1056 100.24L26.9069 96.134ZM26.9759 97.256L32.2456 102.487L32.1766 101.366L26.9759 97.256ZM27.0429 98.374L32.3125 103.604L32.2456 102.487L27.0429 98.374ZM27.1079 99.488L32.3775 104.718L32.3125 103.604L27.1079 99.488ZM27.1709 100.598L32.4405 105.827L32.3775 104.718L27.1709 100.598ZM27.2319 101.704L32.5014 106.932L32.4405 105.827L27.2319 101.704ZM27.2909 102.806L32.5604 108.034L32.5014 106.932L27.2909 102.806ZM27.3479 103.904L32.6174 109.131L32.5604 108.034L27.3479 103.904ZM27.4029 104.998L32.6723 110.225L32.6174 109.131L27.4029 104.998ZM27.4559 106.088L32.7253 111.314L32.6723 110.225L27.4559 106.088ZM27.5069 107.174L32.7763 112.399L32.7253 111.314L27.5069 107.174ZM27.5559 108.256L32.8252 113.481L32.7763 112.399L27.5559 108.256ZM27.6249 109.297L32.8942 114.521L32.8252 113.481L27.6249 109.297ZM27.6879 110.308L32.9572 115.531L32.8942 114.521L27.6879 110.308ZM27.7449 111.289L33.0141 116.512L32.9572 115.531L27.7449 111.289ZM27.7959 112.24L33.0651 117.462L33.0141 116.512L27.7959 112.24ZM27.8409 113.161L33.1101 118.383L33.0651 117.462L27.8409 113.161ZM27.8799 114.052L33.149 119.273L33.1101 118.383L27.8799 114.052ZM27.9129 114.913L33.182 120.134L33.149 119.273L27.9129 114.913ZM27.9399 115.744L33.209 120.964L33.182 120.134L27.9399 115.744ZM27.9609 116.545L33.23 121.765L33.209 120.964L27.9609 116.545ZM27.9759 117.316L33.245 122.535L33.23 121.765L27.9759 117.316ZM27.9849 118.057L33.254 123.276L33.245 122.535L27.9849 118.057ZM27.9879 118.768L33.257 123.987L33.254 123.276L27.9879 118.768ZM27.9879 140.8L33.257 146.006V123.987L27.9879 140.8ZM7.82788 140.8L13.1087 146.006H33.257L7.82788 140.8ZM160.736 57.604L165.928 62.8581L165.229 62.0956L160.736 57.604ZM161.405 58.401L166.596 63.6547L165.928 62.8581L161.405 58.401ZM162.044 59.232L167.235 64.4852L166.596 63.6547L162.044 59.232ZM162.653 60.097L167.843 65.3497L167.235 64.4852L162.653 60.097ZM163.232 60.996L168.422 66.2481L167.843 65.3497L163.232 60.996ZM163.781 61.929L168.971 67.1806L168.422 66.2481L163.781 61.929ZM164.3 62.896L169.489 68.147L168.971 67.1806L164.3 62.896ZM164.783 63.877L169.972 69.1275L169.489 68.147L164.783 63.877ZM165.224 64.9L170.413 70.1499L169.972 69.1275L165.224 64.9ZM165.623 65.965L170.812 71.2143L170.413 70.1499L165.623 65.965ZM165.98 67.072L171.168 72.3206L170.812 71.2143L165.98 67.072ZM166.295 68.221L171.483 73.4689L171.168 72.3206L166.295 68.221ZM166.568 69.412L171.756 74.6593L171.483 73.4689L166.568 69.412ZM166.799 70.645L171.987 75.8915L171.756 74.6593L166.799 70.645ZM166.988 71.92L172.176 77.1658L171.987 75.8915L166.988 71.92ZM167.135 73.237L172.323 78.482L172.176 77.1658L167.135 73.237ZM167.24 74.596L172.428 79.8402L172.323 78.482L167.24 74.596ZM167.303 75.997L172.491 81.2404L172.428 79.8402L167.303 75.997ZM167.324 77.44L172.512 82.6826L172.491 81.2404L167.324 77.44ZM167.295 79.096L172.483 84.3376L172.512 82.6826L167.295 79.096ZM167.208 80.704L172.396 85.9447L172.483 84.3376L167.208 80.704ZM167.063 82.264L172.251 87.5038L172.396 85.9447L167.063 82.264ZM166.86 83.776L172.048 89.0149L172.251 87.5038L166.86 83.776ZM166.599 85.24L171.787 90.4781L172.048 89.0149L166.599 85.24ZM166.28 86.656L171.468 91.8932L171.787 90.4781L166.28 86.656ZM165.903 88.024L171.092 93.2604L171.468 91.8932L165.903 88.024ZM165.468 89.344L170.657 94.5797L171.092 93.2604L165.468 89.344ZM164.975 90.616L170.164 95.8509L170.657 94.5797L164.975 90.616ZM164.424 91.84L169.613 97.0742L170.164 95.8509L164.424 91.84ZM163.815 93.016L169.005 98.2495L169.613 97.0742L163.815 93.016ZM163.148 94.144L168.338 99.3769L169.005 98.2495L163.148 94.144ZM162.456 95.228L167.647 100.46L168.338 99.3769L162.456 95.228ZM161.724 96.272L166.915 101.504L167.647 100.46L161.724 96.272ZM160.952 97.276L166.143 102.507L166.915 101.504L160.952 97.276ZM160.14 98.24L165.332 103.47L166.143 102.507L160.14 98.24ZM159.288 99.164L164.48 104.394L165.332 103.47L159.288 99.164ZM158.396 100.048L163.589 105.277L164.48 104.394L158.396 100.048ZM157.464 100.892L162.657 106.121L163.589 105.277L157.464 100.892ZM156.492 101.696L161.686 106.924L162.657 106.121L156.492 101.696ZM155.48 102.46L160.675 107.688L161.686 106.924L155.48 102.46ZM154.428 103.184L159.623 108.412L160.675 107.688L154.428 103.184ZM153.336 103.868L158.532 109.095L159.623 108.412L153.336 103.868ZM152.204 104.512L157.4 109.739L158.532 109.095L152.204 104.512ZM172.508 140.8L177.693 146.006L157.4 109.739L172.508 140.8ZM144.86 140.8L150.061 146.006H177.693L144.86 140.8ZM119.804 109.408L125.019 114.632H133.942L119.804 109.408ZM119.804 140.8L125.019 146.006V114.632L119.804 140.8ZM95.0356 140.8L100.266 146.006H125.019L95.0356 140.8ZM140.432 69.96L145.635 75.2069L146.148 75.7206L140.432 69.96ZM139.865 69.498L145.069 74.7452L145.635 75.2069L139.865 69.498ZM139.244 69.088L144.448 74.3354L145.069 74.7452L139.244 69.088ZM138.595 68.72L143.799 73.9677L144.448 74.3354L138.595 68.72ZM137.896 68.384L143.101 73.6319L143.799 73.9677L137.896 68.384ZM137.147 68.08L142.352 73.328L143.101 73.6319L137.147 68.08ZM136.348 67.808L141.554 73.0562L142.352 73.328L136.348 67.808ZM135.499 67.568L140.705 72.8163L141.554 73.0562L135.499 67.568ZM134.6 67.36L139.807 72.6084L140.705 72.8163L134.6 67.36ZM133.651 67.184L138.858 72.4326L139.807 72.6084L133.651 67.184ZM132.652 67.04L137.86 72.2886L138.858 72.4326L132.652 67.04ZM131.603 66.928L136.811 72.1767L137.86 72.2886L131.603 66.928ZM130.504 66.848L135.713 72.0967L136.811 72.1767L130.504 66.848ZM129.355 66.8L134.565 72.0488L135.713 72.0967L129.355 66.8ZM128.156 66.784L133.366 72.0328L134.565 72.0488L128.156 66.784ZM119.804 66.784L125.019 72.0328H133.366L119.804 66.784ZM119.804 89.824L125.019 95.0594V72.0328L119.804 89.824ZM33.0279 47.2L40.6599 77.728L38.294 52.4602L33.0279 47.2ZM40.6599 77.728L43.2519 89.824L45.9216 82.9704L40.6599 77.728ZM79.2519 47.2V140.8L84.4912 52.4602L79.2519 47.2ZM79.2519 140.8H58.8039L84.4912 146.006L79.2519 140.8ZM61.9719 71.248H61.5399L67.2212 76.4942L61.9719 71.248ZM61.5399 71.248L53.6199 99.04L66.7895 76.4942L61.5399 71.248ZM53.6199 99.04L48.7239 116.032L58.8741 104.27L53.6199 99.04ZM48.7239 116.032H37.7799L53.9809 121.252L48.7239 116.032ZM25.3959 71.248H24.8199L30.6665 76.4942L25.3959 71.248ZM24.8199 71.248L24.8929 71.959L30.0908 76.4942L24.8199 71.248ZM24.8929 71.959L24.9679 72.7L30.1638 77.2048L24.8929 71.959ZM24.9679 72.7L25.0449 73.471L30.2387 77.9453L24.9679 72.7ZM25.0449 73.471L25.1239 74.272L30.3157 78.7159L25.0449 73.471ZM25.1239 74.272L25.2049 75.103L30.3946 79.5164L25.1239 74.272ZM25.2049 75.103L25.2879 75.964L30.4756 80.3469L25.2049 75.103ZM25.2879 75.964L25.3729 76.855L30.5585 81.2074L25.2879 75.964ZM25.3729 76.855L25.4599 77.776L30.6435 82.0979L25.3729 76.855ZM25.4599 77.776L25.5489 78.727L30.7304 83.0184L25.4599 77.776ZM25.5489 78.727L25.6399 79.708L30.8194 83.9688L25.5489 78.727ZM25.6399 79.708L25.7329 80.719L30.9103 84.9493L25.6399 79.708ZM25.7329 80.719L25.8279 81.76L31.0033 85.9597L25.7329 80.719ZM25.8279 81.76L25.9229 82.82L31.0982 87.0001L25.8279 81.76ZM25.9229 82.82L26.0159 83.888L31.1932 88.0595L25.9229 82.82ZM26.0159 83.888L26.1069 84.964L31.2861 89.1268L26.0159 83.888ZM26.1069 84.964L26.1959 86.048L31.3771 90.2022L26.1069 84.964ZM26.1959 86.048L26.2829 87.14L31.466 91.2856L26.1959 86.048ZM26.2829 87.14L26.3679 88.24L31.553 92.3769L26.2829 87.14ZM26.3679 88.24L26.4509 89.348L31.6379 93.4763L26.3679 88.24ZM26.4509 89.348L26.5319 90.464L31.7209 94.5837L26.4509 89.348ZM26.5319 90.464L26.6109 91.588L31.8018 95.699L26.5319 90.464ZM26.6109 91.588L26.6879 92.72L31.8808 96.8224L26.6109 91.588ZM26.6879 92.72L26.7629 93.86L31.9577 97.9537L26.6879 92.72ZM26.7629 93.86L26.8359 95.008L32.0327 99.093L26.7629 93.86ZM26.8359 95.008L26.9069 96.134L32.1056 100.24L26.8359 95.008ZM26.9069 96.134L26.9759 97.256L32.1766 101.366L26.9069 96.134ZM26.9759 97.256L27.0429 98.374L32.2456 102.487L26.9759 97.256ZM27.0429 98.374L27.1079 99.488L32.3125 103.604L27.0429 98.374ZM27.1079 99.488L27.1709 100.598L32.3775 104.718L27.1079 99.488ZM27.1709 100.598L27.2319 101.704L32.4405 105.827L27.1709 100.598ZM27.2319 101.704L27.2909 102.806L32.5014 106.932L27.2319 101.704ZM27.2909 102.806L27.3479 103.904L32.5604 108.034L27.2909 102.806ZM27.3479 103.904L27.4029 104.998L32.6174 109.131L27.3479 103.904ZM27.4029 104.998L27.4559 106.088L32.6723 110.225L27.4029 104.998ZM27.4559 106.088L27.5069 107.174L32.7253 111.314L27.4559 106.088ZM27.5069 107.174L27.5559 108.256L32.7763 112.399L27.5069 107.174ZM27.5559 108.256L27.6249 109.297L32.8252 113.481L27.5559 108.256ZM27.6249 109.297L27.6879 110.308L32.8942 114.521L27.6249 109.297ZM27.6879 110.308L27.7449 111.289L32.9572 115.531L27.6879 110.308ZM27.7449 111.289L27.7959 112.24L33.0141 116.512L27.7449 111.289ZM27.7959 112.24L27.8409 113.161L33.0651 117.462L27.7959 112.24ZM27.8409 113.161L27.8799 114.052L33.1101 118.383L27.8409 113.161ZM27.8799 114.052L27.9129 114.913L33.149 119.273L27.8799 114.052ZM27.9129 114.913L27.9399 115.744L33.182 120.134L27.9129 114.913ZM27.9399 115.744L27.9609 116.545L33.209 120.964L27.9399 115.744ZM27.9609 116.545L27.9759 117.316L33.23 121.765L27.9609 116.545ZM27.9759 117.316L27.9849 118.057L33.245 122.535L27.9759 117.316ZM27.9849 118.057L27.9879 118.768L33.254 123.276L27.9849 118.057ZM27.9879 118.768V140.8L33.257 123.987L27.9879 118.768ZM27.9879 140.8H7.82788L33.257 146.006L27.9879 140.8ZM160.037 56.841L160.736 57.604L165.229 62.0956L160.037 56.841ZM160.736 57.604L161.405 58.401L165.928 62.8581L160.736 57.604ZM161.405 58.401L162.044 59.232L166.596 63.6547L161.405 58.401ZM162.044 59.232L162.653 60.097L167.235 64.4852L162.044 59.232ZM162.653 60.097L163.232 60.996L167.843 65.3497L162.653 60.097ZM163.232 60.996L163.781 61.929L168.422 66.2481L163.232 60.996ZM163.781 61.929L164.3 62.896L168.971 67.1806L163.781 61.929ZM164.3 62.896L164.783 63.877L169.489 68.147L164.3 62.896ZM164.783 63.877L165.224 64.9L169.972 69.1275L164.783 63.877ZM165.224 64.9L165.623 65.965L170.413 70.1499L165.224 64.9ZM165.623 65.965L165.98 67.072L170.812 71.2143L165.623 65.965ZM165.98 67.072L166.295 68.221L171.168 72.3206L165.98 67.072ZM166.295 68.221L166.568 69.412L171.483 73.4689L166.295 68.221ZM166.568 69.412L166.799 70.645L171.756 74.6593L166.568 69.412ZM166.799 70.645L166.988 71.92L171.987 75.8915L166.799 70.645ZM166.988 71.92L167.135 73.237L172.176 77.1658L166.988 71.92ZM167.135 73.237L167.24 74.596L172.323 78.482L167.135 73.237ZM167.24 74.596L167.303 75.997L172.428 79.8402L167.24 74.596ZM167.303 75.997L167.324 77.44L172.491 81.2404L167.303 75.997ZM167.324 77.44L167.295 79.096L172.512 82.6826L167.324 77.44ZM167.295 79.096L167.208 80.704L172.483 84.3376L167.295 79.096ZM167.208 80.704L167.063 82.264L172.396 85.9447L167.208 80.704ZM167.063 82.264L166.86 83.776L172.251 87.5038L167.063 82.264ZM166.86 83.776L166.599 85.24L172.048 89.0149L166.86 83.776ZM166.599 85.24L166.28 86.656L171.787 90.4781L166.599 85.24ZM166.28 86.656L165.903 88.024L171.468 91.8932L166.28 86.656ZM165.903 88.024L165.468 89.344L171.092 93.2604L165.903 88.024ZM165.468 89.344L164.975 90.616L170.657 94.5797L165.468 89.344ZM164.975 90.616L164.424 91.84L170.164 95.8509L164.975 90.616ZM164.424 91.84L163.815 93.016L169.613 97.0742L164.424 91.84ZM163.815 93.016L163.148 94.144L169.005 98.2495L163.815 93.016ZM163.148 94.144L162.456 95.228L168.338 99.3769L163.148 94.144ZM162.456 95.228L161.724 96.272L167.647 100.46L162.456 95.228ZM161.724 96.272L160.952 97.276L166.915 101.504L161.724 96.272ZM160.952 97.276L160.14 98.24L166.143 102.507L160.952 97.276ZM160.14 98.24L159.288 99.164L165.332 103.47L160.14 98.24ZM159.288 99.164L158.396 100.048L164.48 104.394L159.288 99.164ZM158.396 100.048L157.464 100.892L163.589 105.277L158.396 100.048ZM157.464 100.892L156.492 101.696L162.657 106.121L157.464 100.892ZM156.492 101.696L155.48 102.46L161.686 106.924L156.492 101.696ZM155.48 102.46L154.428 103.184L160.675 107.688L155.48 102.46ZM154.428 103.184L153.336 103.868L159.623 108.412L154.428 103.184ZM153.336 103.868L152.204 104.512L158.532 109.095L153.336 103.868ZM152.204 104.512L172.508 140.8L157.4 109.739L152.204 104.512ZM172.508 140.8H144.86L177.693 146.006L172.508 140.8ZM128.732 109.408H119.804L133.942 114.632L128.732 109.408ZM119.804 109.408V140.8L125.019 114.632L119.804 109.408ZM119.804 140.8H95.0356L125.019 146.006L119.804 140.8ZM140.945 70.474L140.432 69.96L146.148 75.7206L140.945 70.474ZM140.432 69.96L139.865 69.498L145.635 75.2069L140.432 69.96ZM139.865 69.498L139.244 69.088L145.069 74.7452L139.865 69.498ZM139.244 69.088L138.595 68.72L144.448 74.3354L139.244 69.088ZM138.595 68.72L137.896 68.384L143.799 73.9677L138.595 68.72ZM137.896 68.384L137.147 68.08L143.101 73.6319L137.896 68.384ZM137.147 68.08L136.348 67.808L142.352 73.328L137.147 68.08ZM136.348 67.808L135.499 67.568L141.554 73.0562L136.348 67.808ZM135.499 67.568L134.6 67.36L140.705 72.8163L135.499 67.568ZM134.6 67.36L133.651 67.184L139.807 72.6084L134.6 67.36ZM133.651 67.184L132.652 67.04L138.858 72.4326L133.651 67.184ZM132.652 67.04L131.603 66.928L137.86 72.2886L132.652 67.04ZM131.603 66.928L130.504 66.848L136.811 72.1767L131.603 66.928ZM130.504 66.848L129.355 66.8L135.713 72.0967L130.504 66.848ZM129.355 66.8L128.156 66.784L134.565 72.0488L129.355 66.8ZM128.156 66.784H119.804L133.366 72.0328L128.156 66.784ZM119.804 66.784V89.824L125.019 72.0328L119.804 66.784ZM7.82788 47.2V140.8H27.9879L7.82788 47.2ZM40.6599 77.728L33.0279 47.2H7.82788L40.6599 77.728ZM54.0519 47.2L46.4199 77.728L43.8279 89.824L54.0519 47.2ZM58.8039 140.8H79.2519V47.2L58.8039 140.8ZM58.8059 118.057L58.8039 118.768V140.8L58.8059 118.057ZM58.8219 116.545L58.8119 117.316L58.8059 118.057L58.8219 116.545ZM58.8539 114.913L58.8359 115.744L58.8219 116.545L58.8539 114.913ZM58.9019 113.161L58.8759 114.052L58.8539 114.913L58.9019 113.161ZM58.9659 111.289L58.9319 112.24L58.9019 113.161L58.9659 111.289ZM59.0459 109.297L59.0039 110.308L58.9659 111.289L59.0459 109.297ZM59.1639 107.174L59.0919 108.256L59.0459 109.297L59.1639 107.174ZM60.1039 92.72L60.0289 93.86L59.9559 95.008L60.1039 92.72ZM60.2599 90.464L60.1809 91.588L60.1039 92.72L60.2599 90.464ZM60.4239 88.24L60.3409 89.348L60.2599 90.464L60.4239 88.24ZM60.5959 86.048L60.5089 87.14L60.4239 88.24L60.5959 86.048ZM60.7759 83.888L60.6849 84.964L60.5959 86.048L60.7759 83.888ZM60.9639 81.76L60.8689 82.82L60.7759 83.888L60.9639 81.76ZM61.1519 79.708L61.0589 80.719L60.9639 81.76L61.1519 79.708ZM61.3319 77.776L61.2429 78.727L61.1519 79.708L61.3319 77.776ZM61.5039 75.964L61.4189 76.855L61.3319 77.776L61.5039 75.964ZM61.6679 74.272L61.5869 75.103L61.5039 75.964L61.6679 74.272ZM61.8239 72.7L61.7469 73.471L61.6679 74.272L61.8239 72.7ZM61.9719 71.248L61.8989 71.959L61.8239 72.7L61.9719 71.248ZM48.7239 116.032L53.6199 99.04L61.5399 71.248L48.7239 116.032ZM32.5959 99.04L37.7799 116.032H48.7239L32.5959 99.04ZM24.9679 72.7L24.8929 71.959L24.8199 71.248L24.9679 72.7ZM25.1239 74.272L25.0449 73.471L24.9679 72.7L25.1239 74.272ZM25.2879 75.964L25.2049 75.103L25.1239 74.272L25.2879 75.964ZM25.4599 77.776L25.3729 76.855L25.2879 75.964L25.4599 77.776ZM25.6399 79.708L25.5489 78.727L25.4599 77.776L25.6399 79.708ZM25.8279 81.76L25.7329 80.719L25.6399 79.708L25.8279 81.76ZM26.0159 83.888L25.9229 82.82L25.8279 81.76L26.0159 83.888ZM26.1959 86.048L26.1069 84.964L26.0159 83.888L26.1959 86.048ZM26.3679 88.24L26.2829 87.14L26.1959 86.048L26.3679 88.24ZM26.5319 90.464L26.4509 89.348L26.3679 88.24L26.5319 90.464ZM26.6879 92.72L26.6109 91.588L26.5319 90.464L26.6879 92.72ZM26.8359 95.008L26.7629 93.86L26.6879 92.72L26.8359 95.008ZM26.9759 97.256L26.9069 96.134L26.8359 95.008L26.9759 97.256ZM27.1079 99.488L27.0429 98.374L26.9759 97.256L27.1079 99.488ZM27.2319 101.704L27.1709 100.598L27.1079 99.488L27.2319 101.704ZM27.3479 103.904L27.2909 102.806L27.2319 101.704L27.3479 103.904ZM27.4559 106.088L27.4029 104.998L27.3479 103.904L27.4559 106.088ZM27.5559 108.256L27.5069 107.174L27.4559 106.088L27.5559 108.256ZM27.6879 110.308L27.6249 109.297L27.5559 108.256L27.6879 110.308ZM27.7959 112.24L27.7449 111.289L27.6879 110.308L27.7959 112.24ZM27.8799 114.052L27.8409 113.161L27.7959 112.24L27.8799 114.052ZM27.9399 115.744L27.9129 114.913L27.8799 114.052L27.9399 115.744ZM27.9759 117.316L27.9609 116.545L27.9399 115.744L27.9759 117.316ZM27.9879 118.768L27.9849 118.057L27.9759 117.316L27.9879 118.768ZM7.82788 47.2L27.9879 140.8V118.768L7.82788 47.2ZM43.2519 89.824L40.6599 77.728L7.82788 47.2L43.2519 89.824ZM79.2519 47.2H54.0519L43.8279 89.824L79.2519 47.2ZM58.8059 118.057L58.8039 140.8L79.2519 47.2L58.8059 118.057ZM58.8539 114.913L58.8219 116.545L58.8059 118.057L58.8539 114.913ZM58.9659 111.289L58.9019 113.161L58.8539 114.913L58.9659 111.289ZM59.1639 107.174L59.0459 109.297L58.9659 111.289L59.1639 107.174ZM60.1039 92.72L59.9559 95.008L59.8839 96.134L60.1039 92.72ZM60.4239 88.24L60.2599 90.464L60.1039 92.72L60.4239 88.24ZM60.7759 83.888L60.5959 86.048L60.4239 88.24L60.7759 83.888ZM61.1519 79.708L60.9639 81.76L60.7759 83.888L61.1519 79.708ZM61.5039 75.964L61.3319 77.776L61.1519 79.708L61.5039 75.964ZM61.8239 72.7L61.6679 74.272L61.5039 75.964L61.8239 72.7ZM25.3959 71.248L32.5959 99.04L48.7239 116.032L25.3959 71.248ZM25.1239 74.272L24.9679 72.7L24.8199 71.248L25.1239 74.272ZM25.4599 77.776L25.2879 75.964L25.1239 74.272L25.4599 77.776ZM25.8279 81.76L25.6399 79.708L25.4599 77.776L25.8279 81.76ZM26.1959 86.048L26.0159 83.888L25.8279 81.76L26.1959 86.048ZM26.5319 90.464L26.3679 88.24L26.1959 86.048L26.5319 90.464ZM26.8359 95.008L26.6879 92.72L26.5319 90.464L26.8359 95.008ZM27.1079 99.488L26.9759 97.256L26.8359 95.008L27.1079 99.488ZM27.3479 103.904L27.2319 101.704L27.1079 99.488L27.3479 103.904ZM27.5559 108.256L27.4559 106.088L27.3479 103.904L27.5559 108.256ZM27.7959 112.24L27.6879 110.308L27.5559 108.256L27.7959 112.24ZM27.9399 115.744L27.8799 114.052L27.7959 112.24L27.9399 115.744ZM27.9879 118.768L27.9759 117.316L27.9399 115.744L27.9879 118.768ZM58.8539 114.913L58.8059 118.057L79.2519 47.2L58.8539 114.913ZM59.1639 107.174L58.9659 111.289L58.8539 114.913L59.1639 107.174ZM60.1039 92.72L59.8839 96.134L59.8119 97.256L60.1039 92.72ZM60.7759 83.888L60.4239 88.24L60.1039 92.72L60.7759 83.888ZM61.5039 75.964L61.1519 79.708L60.7759 83.888L61.5039 75.964ZM61.9719 71.248L61.8239 72.7L61.5039 75.964L61.9719 71.248ZM25.4599 77.776L25.1239 74.272L24.8199 71.248L25.4599 77.776ZM26.1959 86.048L25.8279 81.76L25.4599 77.776L26.1959 86.048ZM26.8359 95.008L26.5319 90.464L26.1959 86.048L26.8359 95.008ZM27.3479 103.904L27.1079 99.488L26.8359 95.008L27.3479 103.904ZM27.9399 115.744L27.7959 112.24L27.5559 108.256L27.9399 115.744ZM7.82788 47.2L27.9879 118.768L27.9399 115.744L7.82788 47.2ZM59.1639 107.174L58.8539 114.913L79.2519 47.2L59.1639 107.174ZM60.7759 83.888L60.1039 92.72L59.8119 97.256L60.7759 83.888ZM61.9719 71.248L61.5039 75.964L60.7759 83.888L61.9719 71.248ZM26.1959 86.048L25.4599 77.776L24.8199 71.248L26.1959 86.048ZM27.3479 103.904L26.8359 95.008L26.1959 86.048L27.3479 103.904ZM7.82788 47.2L27.9399 115.744L27.5559 108.256L7.82788 47.2ZM59.2359 106.088L59.1639 107.174L79.2519 47.2L59.2359 106.088ZM60.7759 83.888L59.8119 97.256L59.7399 98.374L60.7759 83.888ZM27.3479 103.904L26.1959 86.048L24.8199 71.248L27.3479 103.904ZM7.82788 47.2L27.5559 108.256L27.3479 103.904L7.82788 47.2ZM59.3079 104.998L59.2359 106.088L79.2519 47.2L59.3079 104.998ZM60.7759 83.888L59.7399 98.374L59.6679 99.488L60.7759 83.888ZM7.82788 47.2L27.3479 103.904L24.8199 71.248L7.82788 47.2ZM59.3799 103.904L59.3079 104.998L79.2519 47.2L59.3799 103.904ZM60.7759 83.888L59.6679 99.488L59.5959 100.598L60.7759 83.888ZM7.82788 47.2L24.8199 71.248H25.3959L7.82788 47.2ZM59.4519 102.806L59.3799 103.904L79.2519 47.2L59.4519 102.806ZM60.7759 83.888L59.5959 100.598L59.5239 101.704L60.7759 83.888ZM43.2519 89.824L7.82788 47.2L25.3959 71.248L43.2519 89.824ZM59.5239 101.704L59.4519 102.806L79.2519 47.2L59.5239 101.704ZM61.9719 71.248L60.7759 83.888L59.5239 101.704L61.9719 71.248ZM43.2519 89.824L25.3959 71.248L48.7239 116.032L43.2519 89.824ZM61.9719 71.248L59.5239 101.704L79.2519 47.2L61.9719 71.248ZM43.8279 89.824H43.2519L48.7239 116.032L43.8279 89.824ZM61.5399 71.248H61.9719L79.2519 47.2L61.5399 71.248ZM43.8279 89.824L48.7239 116.032L61.5399 71.248L43.8279 89.824ZM61.5399 71.248L79.2519 47.2L43.8279 89.824L61.5399 71.248ZM119.804 66.784L95.0356 47.2V140.8L119.804 66.784ZM95.0356 47.2L119.804 66.784H128.156L95.0356 47.2ZM131.127 47.21L129.884 47.2H95.0356L131.127 47.21ZM133.583 47.29L132.36 47.24L131.127 47.21L133.583 47.29ZM135.999 47.45L134.796 47.36L133.583 47.29L135.999 47.45ZM138.375 47.69L137.192 47.56L135.999 47.45L138.375 47.69ZM140.711 48.01L139.548 47.84L138.375 47.69L140.711 48.01ZM143.007 48.41L141.864 48.2L140.711 48.01L143.007 48.41ZM145.279 48.894L144.14 48.64L143.007 48.41L145.279 48.894ZM147.479 49.486L146.392 49.176L145.279 48.894L147.479 49.486ZM149.575 50.19L148.54 49.824L147.479 49.486L149.575 50.19ZM151.567 51.006L150.584 50.584L149.575 50.19L151.567 51.006ZM153.455 51.934L152.524 51.456L151.567 51.006L153.455 51.934ZM155.239 52.974L154.36 52.44L153.455 51.934L155.239 52.974ZM156.941 54.129L156.092 53.536L155.239 52.974L156.941 54.129ZM158.549 55.417L157.76 54.756L156.941 54.129L158.549 55.417ZM160.037 56.841L159.308 56.112L158.549 55.417L160.037 56.841ZM161.405 58.401L160.736 57.604L160.037 56.841L161.405 58.401ZM162.653 60.097L162.044 59.232L161.405 58.401L162.653 60.097ZM163.781 61.929L163.232 60.996L162.653 60.097L163.781 61.929ZM164.783 63.877L164.3 62.896L163.781 61.929L164.783 63.877ZM165.623 65.965L165.224 64.9L164.783 63.877L165.623 65.965ZM166.295 68.221L165.98 67.072L165.623 65.965L166.295 68.221ZM166.799 70.645L166.568 69.412L166.295 68.221L166.799 70.645ZM167.135 73.237L166.988 71.92L166.799 70.645L167.135 73.237ZM167.303 75.997L167.24 74.596L167.135 73.237L167.303 75.997ZM167.295 79.096L167.324 77.44L167.303 75.997L167.295 79.096ZM167.063 82.264L167.208 80.704L167.295 79.096L167.063 82.264ZM166.599 85.24L166.86 83.776L167.063 82.264L166.599 85.24ZM165.903 88.024L166.28 86.656L166.599 85.24L165.903 88.024ZM164.975 90.616L165.468 89.344L165.903 88.024L164.975 90.616ZM163.815 93.016L164.424 91.84L164.975 90.616L163.815 93.016ZM162.456 95.228L163.148 94.144L163.815 93.016L162.456 95.228ZM160.952 97.276L161.724 96.272L162.456 95.228L160.952 97.276ZM159.288 99.164L160.14 98.24L160.952 97.276L159.288 99.164ZM157.464 100.892L158.396 100.048L159.288 99.164L157.464 100.892ZM155.48 102.46L156.492 101.696L157.464 100.892L155.48 102.46ZM153.336 103.868L154.428 103.184L155.48 102.46L153.336 103.868ZM144.86 140.8H172.508L152.204 104.512L144.86 140.8ZM95.0356 140.8H119.804V109.408L95.0356 140.8ZM119.804 89.824V66.784L95.0356 140.8L119.804 89.824ZM95.0356 47.2L128.156 66.784L129.355 66.8L95.0356 47.2ZM133.583 47.29L131.127 47.21L95.0356 47.2L133.583 47.29ZM138.375 47.69L135.999 47.45L133.583 47.29L138.375 47.69ZM143.007 48.41L140.711 48.01L138.375 47.69L143.007 48.41ZM147.479 49.486L145.279 48.894L143.007 48.41L147.479 49.486ZM151.567 51.006L149.575 50.19L147.479 49.486L151.567 51.006ZM155.239 52.974L153.455 51.934L151.567 51.006L155.239 52.974ZM158.549 55.417L156.941 54.129L155.239 52.974L158.549 55.417ZM161.405 58.401L160.037 56.841L158.549 55.417L161.405 58.401ZM163.781 61.929L162.653 60.097L161.405 58.401L163.781 61.929ZM165.623 65.965L164.783 63.877L163.781 61.929L165.623 65.965ZM166.799 70.645L166.295 68.221L165.623 65.965L166.799 70.645ZM167.303 75.997L167.135 73.237L166.799 70.645L167.303 75.997ZM167.063 82.264L167.295 79.096L167.303 75.997L167.063 82.264ZM165.903 88.024L166.599 85.24L167.063 82.264L165.903 88.024ZM163.815 93.016L164.975 90.616L165.903 88.024L163.815 93.016ZM160.952 97.276L162.456 95.228L163.815 93.016L160.952 97.276ZM157.464 100.892L159.288 99.164L160.952 97.276L157.464 100.892ZM153.336 103.868L155.48 102.46L157.464 100.892L153.336 103.868ZM128.732 109.408L144.86 140.8L152.204 104.512L128.732 109.408ZM119.804 89.824L95.0356 140.8L119.804 109.408V89.824ZM95.0356 47.2L129.355 66.8L130.504 66.848L95.0356 47.2ZM138.375 47.69L133.583 47.29L95.0356 47.2L138.375 47.69ZM147.479 49.486L143.007 48.41L138.375 47.69L147.479 49.486ZM155.239 52.974L151.567 51.006L147.479 49.486L155.239 52.974ZM161.405 58.401L158.549 55.417L155.239 52.974L161.405 58.401ZM165.623 65.965L163.781 61.929L161.405 58.401L165.623 65.965ZM167.303 75.997L166.799 70.645L165.623 65.965L167.303 75.997ZM165.903 88.024L167.063 82.264L167.303 75.997L165.903 88.024ZM160.952 97.276L163.815 93.016L165.903 88.024L160.952 97.276ZM153.336 103.868L157.464 100.892L160.952 97.276L153.336 103.868ZM128.732 109.408L152.204 104.512L153.336 103.868L128.732 109.408ZM119.804 89.824V109.408H128.732L119.804 89.824ZM95.0356 47.2L130.504 66.848L131.603 66.928L95.0356 47.2ZM147.479 49.486L138.375 47.69L95.0356 47.2L147.479 49.486ZM161.405 58.401L155.239 52.974L147.479 49.486L161.405 58.401ZM167.303 75.997L165.623 65.965L161.405 58.401L167.303 75.997ZM160.952 97.276L165.903 88.024L167.303 75.997L160.952 97.276ZM128.732 109.408L153.336 103.868L160.952 97.276L128.732 109.408ZM128.156 89.824H119.804L128.732 109.408L128.156 89.824ZM95.0356 47.2L131.603 66.928L132.652 67.04L95.0356 47.2ZM161.405 58.401L147.479 49.486L95.0356 47.2L161.405 58.401ZM160.952 97.276L167.303 75.997L161.405 58.401L160.952 97.276ZM128.156 89.824L128.732 109.408L160.952 97.276L128.156 89.824ZM95.0356 47.2L132.652 67.04L133.651 67.184L95.0356 47.2ZM130.548 89.738L128.156 89.824L160.952 97.276L130.548 89.738ZM95.0356 47.2L133.651 67.184L134.6 67.36L95.0356 47.2ZM132.732 89.48L130.548 89.738L160.952 97.276L132.732 89.48ZM95.0356 47.2L134.6 67.36L135.499 67.568L95.0356 47.2ZM134.708 89.05L132.732 89.48L160.952 97.276L134.708 89.05ZM95.0356 47.2L135.499 67.568L136.348 67.808L95.0356 47.2ZM136.476 88.448L134.708 89.05L160.952 97.276L136.476 88.448ZM95.0356 47.2L136.348 67.808L137.147 68.08L95.0356 47.2ZM138.036 87.674L136.476 88.448L160.952 97.276L138.036 87.674ZM95.0356 47.2L137.147 68.08L137.896 68.384L95.0356 47.2ZM139.388 86.728L138.036 87.674L160.952 97.276L139.388 86.728ZM95.0356 47.2L137.896 68.384L138.595 68.72L95.0356 47.2ZM140.532 85.61L139.388 86.728L160.952 97.276L140.532 85.61ZM161.405 58.401L95.0356 47.2L138.595 68.72L161.405 58.401ZM140.532 85.61L160.952 97.276L161.405 58.401L140.532 85.61ZM161.405 58.401L138.595 68.72L139.244 69.088L161.405 58.401ZM141.468 84.32L140.532 85.61L161.405 58.401L141.468 84.32ZM161.405 58.401L139.244 69.088L139.865 69.498L161.405 58.401ZM142.196 82.858L141.468 84.32L161.405 58.401L142.196 82.858ZM161.405 58.401L139.865 69.498L140.432 69.96L161.405 58.401ZM142.716 81.224L142.196 82.858L161.405 58.401L142.716 81.224ZM161.405 58.401L140.432 69.96L140.945 70.474L161.405 58.401ZM143.028 79.418L142.716 81.224L161.405 58.401L143.028 79.418ZM161.405 58.401L140.945 70.474L141.404 71.04L161.405 58.401ZM143.132 77.44L143.028 79.418L161.405 58.401L143.132 77.44ZM161.405 58.401L141.404 71.04L141.809 71.658L161.405 58.401ZM143.105 76.458L143.132 77.44L161.405 58.401L143.105 76.458ZM161.405 58.401L141.809 71.658L142.16 72.328L161.405 58.401ZM143.024 75.528L143.105 76.458L161.405 58.401L143.024 75.528ZM161.405 58.401L142.16 72.328L142.457 73.05L161.405 58.401ZM142.889 74.65L143.024 75.528L161.405 58.401L142.889 74.65ZM161.405 58.401L142.457 73.05L142.7 73.824L161.405 58.401ZM142.7 73.824L142.889 74.65L161.405 58.401L142.7 73.824Z" fill="#66FCF1"/>
<path d="M7.488 142V48.4H32.688L40.32 78.928L42.912 91.024H43.488L46.08 78.928L53.712 48.4H78.912V142H58.464V119.968C58.464 117.184 58.56 113.68 58.752 109.456C59.04 105.136 59.328 100.72 59.616 96.208C59.904 91.6 60.24 87.184 60.624 82.96C61.008 78.736 61.344 75.232 61.632 72.448H61.2L53.28 100.24L48.384 117.232H37.44L32.256 100.24L25.056 72.448H24.48C24.768 75.232 25.104 78.736 25.488 82.96C25.872 87.184 26.208 91.6 26.496 96.208C26.784 100.72 27.024 105.136 27.216 109.456C27.504 113.68 27.648 117.184 27.648 119.968V142H7.488ZM94.6958 142V48.4H129.544C134.536 48.4 139.288 48.88 143.8 49.84C148.408 50.8 152.392 52.432 155.752 54.736C159.208 57.04 161.944 60.16 163.96 64.096C165.976 67.936 166.984 72.784 166.984 78.64C166.984 85.36 165.592 90.928 162.808 95.344C160.12 99.76 156.472 103.216 151.864 105.712L172.168 142H144.52L128.392 110.608H119.464V142H94.6958ZM119.464 91.024H127.816C137.8 91.024 142.792 86.896 142.792 78.64C142.792 74.608 141.496 71.824 138.904 70.288C136.408 68.752 132.712 67.984 127.816 67.984H119.464V91.024Z" fill="#1F2833"/>
<path d="M7.488 142H6.488V143H7.488V142ZM7.488 48.4V47.4H6.488V48.4H7.488ZM32.688 48.4L33.6581 48.1575L33.4688 47.4H32.688V48.4ZM40.32 78.928L41.2978 78.7185L41.2943 78.7019L41.2901 78.6855L40.32 78.928ZM42.912 91.024L41.9342 91.2335L42.1036 92.024H42.912V91.024ZM43.488 91.024V92.024H44.2964L44.4658 91.2335L43.488 91.024ZM46.08 78.928L45.1099 78.6855L45.1058 78.7019L45.1022 78.7185L46.08 78.928ZM53.712 48.4V47.4H52.9312L52.7419 48.1575L53.712 48.4ZM78.912 48.4H79.912V47.4H78.912V48.4ZM78.912 142V143H79.912V142H78.912ZM58.464 142H57.464V143H58.464V142ZM58.752 109.456L57.7542 109.389L57.7535 109.4L57.753 109.411L58.752 109.456ZM59.616 96.208L60.614 96.2717L60.6141 96.2704L59.616 96.208ZM60.624 82.96L61.6199 83.0505L61.6199 83.0505L60.624 82.96ZM61.632 72.448L62.6267 72.5509L62.7408 71.448H61.632V72.448ZM61.2 72.448V71.448H60.4452L60.2383 72.1739L61.2 72.448ZM53.28 100.24L54.2409 100.517L54.2417 100.514L53.28 100.24ZM48.384 117.232V118.232H49.1366L49.3449 117.509L48.384 117.232ZM37.44 117.232L36.4835 117.524L36.6996 118.232H37.44V117.232ZM32.256 100.24L31.288 100.491L31.2933 100.511L31.2995 100.532L32.256 100.24ZM25.056 72.448L26.024 72.1972L25.8299 71.448H25.056V72.448ZM24.48 72.448V71.448H23.3712L23.4853 72.5509L24.48 72.448ZM25.488 82.96L24.4921 83.0505L24.4921 83.0505L25.488 82.96ZM26.496 96.208L25.4979 96.2704L25.498 96.2717L26.496 96.208ZM27.216 109.456L26.217 109.5L26.2175 109.512L26.2183 109.524L27.216 109.456ZM27.648 142V143H28.648V142H27.648ZM8.488 142V48.4H6.488V142H8.488ZM7.488 49.4H32.688V47.4H7.488V49.4ZM31.7179 48.6425L39.3499 79.1705L41.2901 78.6855L33.6581 48.1575L31.7179 48.6425ZM39.3422 79.1375L41.9342 91.2335L43.8898 90.8145L41.2978 78.7185L39.3422 79.1375ZM42.912 92.024H43.488V90.024H42.912V92.024ZM44.4658 91.2335L47.0578 79.1375L45.1022 78.7185L42.5102 90.8145L44.4658 91.2335ZM47.0501 79.1705L54.6821 48.6425L52.7419 48.1575L45.1099 78.6855L47.0501 79.1705ZM53.712 49.4H78.912V47.4H53.712V49.4ZM77.912 48.4V142H79.912V48.4H77.912ZM78.912 141H58.464V143H78.912V141ZM59.464 142V119.968H57.464V142H59.464ZM59.464 119.968C59.464 117.205 59.5593 113.717 59.751 109.501L57.753 109.411C57.5607 113.643 57.464 117.163 57.464 119.968H59.464ZM59.7498 109.523C60.0379 105.202 60.3259 100.785 60.614 96.2717L58.618 96.1443C58.3301 100.655 58.0422 105.07 57.7542 109.389L59.7498 109.523ZM60.6141 96.2704C60.9015 91.671 61.2368 87.2644 61.6199 83.0505L59.6281 82.8695C59.2432 87.1036 58.9065 91.529 58.618 96.1456L60.6141 96.2704ZM61.6199 83.0505C62.0037 78.8288 62.3393 75.3293 62.6267 72.5509L60.6373 72.3451C60.3487 75.1347 60.0123 78.6432 59.6281 82.8695L61.6199 83.0505ZM61.632 71.448H61.2V73.448H61.632V71.448ZM60.2383 72.1739L52.3183 99.9659L54.2417 100.514L62.1617 72.7221L60.2383 72.1739ZM52.3191 99.9631L47.4231 116.955L49.3449 117.509L54.2409 100.517L52.3191 99.9631ZM48.384 116.232H37.44V118.232H48.384V116.232ZM38.3965 116.94L33.2125 99.9482L31.2995 100.532L36.4835 117.524L38.3965 116.94ZM33.224 99.9892L26.024 72.1972L24.088 72.6988L31.288 100.491L33.224 99.9892ZM25.056 71.448H24.48V73.448H25.056V71.448ZM23.4853 72.5509C23.7727 75.3293 24.1083 78.8288 24.4921 83.0505L26.4839 82.8695C26.0997 78.6432 25.7633 75.1347 25.4747 72.3451L23.4853 72.5509ZM24.4921 83.0505C24.8752 87.2644 25.2105 91.671 25.4979 96.2704L27.4941 96.1456C27.2055 91.529 26.8688 87.1036 26.4839 82.8695L24.4921 83.0505ZM25.498 96.2717C25.7856 100.778 26.0253 105.187 26.217 109.5L28.215 109.412C28.0227 105.085 27.7824 100.662 27.494 96.1443L25.498 96.2717ZM26.2183 109.524C26.5055 113.736 26.648 117.215 26.648 119.968H28.648C28.648 117.153 28.5025 113.624 28.2137 109.388L26.2183 109.524ZM26.648 119.968V142H28.648V119.968H26.648ZM27.648 141H7.488V143H27.648V141ZM94.6958 142H93.6958V143H94.6958V142ZM94.6958 48.4V47.4H93.6958V48.4H94.6958ZM143.8 49.84L143.592 50.8181L143.596 50.819L143.8 49.84ZM155.752 54.736L155.186 55.5608L155.197 55.568L155.752 54.736ZM163.96 64.096L163.07 64.5519L163.074 64.5608L163.96 64.096ZM162.808 95.344L161.962 94.8107L161.958 94.8173L161.954 94.8241L162.808 95.344ZM151.864 105.712L151.387 104.833L150.496 105.316L150.991 106.2L151.864 105.712ZM172.168 142V143H173.873L173.04 141.512L172.168 142ZM144.52 142L143.63 142.457L143.909 143H144.52V142ZM128.392 110.608L129.281 110.151L129.002 109.608H128.392V110.608ZM119.464 110.608V109.608H118.464V110.608H119.464ZM119.464 142V143H120.464V142H119.464ZM119.464 91.024H118.464V92.024H119.464V91.024ZM138.904 70.288L138.38 71.1397L138.387 71.144L138.394 71.1483L138.904 70.288ZM119.464 67.984V66.984H118.464V67.984H119.464ZM95.6958 142V48.4H93.6958V142H95.6958ZM94.6958 49.4H129.544V47.4H94.6958V49.4ZM129.544 49.4C134.471 49.4 139.153 49.8738 143.592 50.8181L144.008 48.8619C139.422 47.8862 134.6 47.4 129.544 47.4V49.4ZM143.596 50.819C148.094 51.7561 151.951 53.3423 155.186 55.5607L156.317 53.9113C152.833 51.5217 148.721 49.8438 144.004 48.861L143.596 50.819ZM155.197 55.568C158.502 57.7712 161.126 60.7577 163.07 64.5519L164.85 63.6401C162.761 59.5623 159.914 56.3088 156.306 53.9039L155.197 55.568ZM163.074 64.5608C164.993 68.2161 165.984 72.8918 165.984 78.64H167.984C167.984 72.6762 166.958 67.6559 164.845 63.6312L163.074 64.5608ZM165.984 78.64C165.984 85.2247 164.62 90.5943 161.962 94.8107L163.654 95.8773C166.563 91.2617 167.984 85.4953 167.984 78.64H165.984ZM161.954 94.8241C159.359 99.0868 155.842 102.42 151.387 104.833L152.34 106.591C157.101 104.012 160.881 100.433 163.662 95.8639L161.954 94.8241ZM150.991 106.2L171.295 142.488L173.04 141.512L152.736 105.224L150.991 106.2ZM172.168 141H144.52V143H172.168V141ZM145.409 141.543L129.281 110.151L127.502 111.065L143.63 142.457L145.409 141.543ZM128.392 109.608H119.464V111.608H128.392V109.608ZM118.464 110.608V142H120.464V110.608H118.464ZM119.464 141H94.6958V143H119.464V141ZM119.464 92.024H127.816V90.024H119.464V92.024ZM127.816 92.024C132.921 92.024 136.935 90.9726 139.685 88.6986C142.471 86.3946 143.792 82.9775 143.792 78.64H141.792C141.792 82.5585 140.616 85.3334 138.41 87.1574C136.168 89.0114 132.695 90.024 127.816 90.024V92.024ZM143.792 78.64C143.792 74.3899 142.41 71.2034 139.414 69.4277L138.394 71.1483C140.581 72.4446 141.792 74.826 141.792 78.64H143.792ZM139.428 69.4363C136.701 67.7583 132.786 66.984 127.816 66.984V68.984C132.637 68.984 136.114 69.7457 138.38 71.1397L139.428 69.4363ZM127.816 66.984H119.464V68.984H127.816V66.984ZM118.464 67.984V91.024H120.464V67.984H118.464Z" fill="#C5C6C7"/>
</svg>
